PathFileType	4	(X/Y/Z)	D:\TRACE\spotREDO_2-26-24\spot_Both_Motion_1_9-v60.trc
DataRate	CameraRate	NumFrames	NumMarkers	Units	OrigDataRate	OrigDataStartFrame	OrigNumFrames
100.00	100.00	      31	9	mm	100.00	6126	      7000
Frame#	Time	front left toe			Front right toe			aft left toe			aft right toe			Arm			FL body			FR body			AL Body			AR Body			
		X1	Y1	Z1	X2	Y2	Z2	X3	Y3	Z3	X4	Y4	Z4	X5	Y5	Z5	X6	Y6	Z6	X7	Y7	Z7	X8	Y8	Z8	X9	Y9	Z9	

6126	61.250	-198.03882	42.42962	-467.38400	208.63971	39.40433	-416.72040	-257.49774	19.21918	132.95914	197.29486	25.32808	70.92542	25.71272	661.56921	-613.81207	-59.92590	401.69925	-604.08490	95.82030	404.69095	-596.80426	-107.50928	380.75980	278.41693	33.97790	383.95743	287.06744	
6127	61.260	-197.66064	42.39686	-467.38525	209.05795	39.29236	-416.75046	-256.96033	19.40103	132.92438	197.88495	25.38385	71.09627	26.71468	661.62445	-613.57190	-59.24029	401.63171	-603.96918	96.90897	404.43622	-596.57141	-106.36884	380.68060	278.64600	34.99687	383.78564	287.22357	
6128	61.270	-197.14848	42.42471	-467.43399	209.26608	39.20429	-416.69531	-256.39172	19.49341	132.98502	198.26207	25.27332	71.08579	27.74401	661.52795	-613.43945	-58.25791	401.51163	-603.70624	97.69469	404.38681	-596.34735	-105.16079	380.73001	278.92407	36.14157	383.72110	287.35068	
6129	61.280	-196.75191	42.47583	-467.47226	209.64008	39.17124	-416.60843	-256.23630	19.72402	132.90150	198.35799	25.26369	71.03121	28.58045	661.51056	-613.31958	-57.54353	401.53659	-603.38245	98.35896	404.16815	-596.28064	-104.40442	380.79739	279.15244	37.11944	383.68750	287.50998	
6130	61.290	-196.57825	42.42899	-467.45200	209.87920	39.25014	-416.44839	-256.18011	19.78336	132.84073	198.63503	25.22486	70.94220	29.63596	661.41144	-613.03949	-57.17415	401.75208	-603.26709	98.91733	403.97256	-596.19403	-103.01384	380.71347	279.46936	38.07380	383.62460	287.77341	
6131	61.300	-196.29691	42.34662	-467.47131	209.84447	38.85151	-416.65140	-256.07260	19.90558	132.82845	198.89555	25.08856	70.81753	30.26005	661.28961	-612.96558	-56.39944	401.75757	-603.05023	99.52527	403.89966	-596.06116	-102.11732	380.70267	279.69339	39.43067	383.61096	287.97672	
6132	61.310	-196.07909	42.22139	-467.51099	210.26923	38.84252	-416.55820	-255.78551	20.09121	132.88605	199.08694	25.04194	70.87240	31.32181	661.10480	-612.64496	-55.97192	401.74789	-602.97156	99.93327	403.75146	-595.85089	-101.29828	380.86050	279.91629	40.29435	383.33585	288.01447	
6133	61.320	-195.94931	42.20379	-467.53406	210.29327	38.18848	-417.04166	-255.49748	20.09369	132.86525	199.34113	25.12390	70.82945	31.94030	660.99249	-612.49664	-55.49703	401.50961	-602.58368	100.34954	403.49860	-595.76044	-100.39541	380.94315	280.22961	40.98711	383.28925	288.10901	
6134	61.330	-195.95993	42.11415	-467.51871	210.55247	37.71534	-417.72949	-255.00626	20.20710	132.84827	199.93062	25.29520	70.91042	32.68261	660.70880	-612.30713	-55.25600	401.50912	-602.31342	100.72014	403.35074	-595.66772	-99.23015	381.12048	280.52234	42.12357	383.31436	288.30389	
6135	61.340	-195.78392	41.97617	-467.55496	210.83826	37.54744	-417.72638	-254.58159	20.28995	132.97607	200.19699	25.31535	70.89249	33.12276	660.61462	-612.19409	-54.93617	401.43848	-602.05804	101.18810	403.13232	-595.54987	-98.54938	381.23538	280.59216	42.91758	383.43094	288.80923	
6136	61.350	-195.39288	42.16687	-467.50858	210.92427	38.23265	-417.58014	-254.13673	20.55373	132.89600	200.44781	25.93024	70.28104	33.44895	660.56714	-612.10547	-54.43105	401.18549	-601.85724	101.14018	402.91022	-595.39386	-97.65124	381.47055	280.89294	43.51628	383.57132	288.95001	
6137	61.360	-195.03487	42.27182	-467.52429	211.36951	38.68984	-417.89404	-253.48245	21.09385	132.79762	203.39401	28.25154	69.63733	33.77768	660.35223	-612.17249	-54.12764	400.95740	-601.63171	101.39570	402.42184	-595.08154	-97.00463	381.36981	281.27173	44.22009	383.39395	289.07785	
6138	61.370	-195.06122	42.21660	-467.42422	211.18588	38.45487	-418.00189	-253.56631	21.70382	132.64587	202.57396	27.14456	69.53769	34.35063	659.91266	-611.87427	-53.96343	400.59149	-601.38794	102.03211	401.74646	-594.81018	-96.43043	381.30295	281.63052	45.11897	383.02133	289.30917	
6139	61.380	-194.91289	42.19787	-467.35349	211.25404	38.34053	-418.02713	-252.92073	21.42718	133.03178	203.08224	27.14005	69.73061	34.65071	659.61249	-611.77423	-53.52923	399.67831	-600.80377	102.23047	400.91519	-594.49609	-95.65286	381.10477	282.09717	45.59269	382.75876	289.56537	
6140	61.390	-194.81776	42.08351	-467.26367	211.35017	38.09887	-417.91772	-252.33183	21.76276	133.21931	202.65143	27.18985	69.59562	35.27538	658.46759	-611.38403	-53.35352	399.03412	-600.27618	102.47831	400.28384	-594.19458	-95.31906	380.88474	282.51965	46.27279	382.39548	290.03265	
6141	61.400	-194.46399	41.92237	-466.97183	211.46649	38.03509	-417.75885	-252.00861	21.58927	133.61827	202.91708	27.15643	69.75515	35.81889	657.35095	-611.07019	-53.11652	398.33041	-599.76215	102.71409	399.30328	-593.38507	-94.64291	380.65530	283.25568	46.80914	382.15967	290.54440	
6142	61.410	-194.03247	41.67168	-466.45148	211.44518	37.75055	-417.77039	-251.46419	21.60289	134.00757	202.87805	27.04015	70.10152	36.31414	656.37067	-610.66296	-52.85122	397.76801	-599.10681	102.94278	398.74106	-592.96558	-94.12764	380.57904	283.82867	47.43156	382.11600	291.47534	
6143	61.420	-193.96284	41.44643	-465.99445	211.42798	37.48633	-417.81201	-251.12068	21.63200	134.38087	202.88609	26.86279	70.47990	36.66996	655.72644	-610.44397	-52.74261	396.99283	-598.40881	103.10493	398.00211	-592.31232	-93.69499	380.83270	284.64908	47.97645	382.20502	291.94977	
6144	61.430	-193.63019	41.24256	-465.59058	211.50775	37.46745	-417.58472	-250.78690	21.77860	134.94618	202.42731	26.80669	70.76643	37.27297	655.10669	-609.72675	-52.55921	396.62079	-597.76257	103.41306	397.57166	-591.52319	-93.34975	381.07187	285.34619	48.44497	382.49768	292.82068	
6145	61.440	-193.15227	40.89458	-465.05676	211.33859	37.39549	-416.75745	-250.37505	21.86904	135.62019	202.21141	27.04519	71.24076	37.44247	654.66742	-608.99384	-52.45355	396.23706	-596.71454	103.56503	397.04733	-590.67102	-93.01611	381.49756	286.20142	48.63669	382.74664	293.73288	
6146	61.450	-192.67018	40.74530	-464.41440	211.49425	37.16969	-416.05542	-249.02638	21.58642	136.83043	202.07516	26.90819	72.02747	37.75677	654.29944	-608.31573	-52.50013	395.94339	-595.81653	103.57671	396.63330	-589.86969	-92.75262	381.95001	287.20941	48.70892	383.33859	294.47586	
6147	61.460	-192.39587	40.53014	-463.59418	211.32201	36.50620	-415.75369	-248.57135	21.69742	137.84750	201.74446	27.04335	72.97344	38.10000	654.04443	-607.71454	-52.18130	395.57254	-594.86212	103.72858	396.31058	-588.78491	-92.47803	382.33630	288.18320	49.03603	383.86804	295.64386	
6148	61.470	-191.76343	39.96733	-462.38184	211.59689	36.54157	-414.14597	-248.15944	21.39007	139.21962	202.19525	26.97053	74.36134	38.33186	653.44250	-606.81696	-52.08998	395.17462	-593.91296	103.73296	395.98019	-587.99927	-92.29423	382.92038	289.27252	49.18311	384.34015	296.53131	
6149	61.480	-191.35323	39.81273	-461.43063	211.64651	36.09874	-412.86200	-247.56882	21.29075	140.60258	201.85678	26.70069	75.67832	38.41526	653.19257	-606.11719	-52.14112	394.68918	-592.64453	104.04069	395.43307	-586.64331	-91.96190	383.47974	290.45676	49.37556	384.80701	297.71011	
6150	61.490	-191.02733	39.47177	-460.06152	211.67801	35.68338	-411.79568	-246.90596	21.56740	141.64812	201.84167	26.79819	77.17400	38.57896	652.61078	-605.08685	-51.88653	393.98468	-591.60980	104.06574	394.96213	-585.61127	-91.80947	383.92276	291.60846	49.74602	385.29291	298.90976	
6151	61.500	-191.05475	39.38654	-459.42935	211.56372	35.22699	-410.52457	-246.41376	21.64823	143.09772	201.94785	26.90990	78.71541	38.25417	652.26257	-603.97534	-51.79270	393.30753	-590.30670	104.13946	394.18970	-584.23602	-91.69423	384.22449	292.94653	49.68040	385.83133	300.20288	
6152	61.510	-190.37595	38.79641	-458.09265	211.44919	34.28177	-409.86227	-245.88892	21.45124	144.62328	201.78493	26.50906	80.27058	38.38585	651.61145	-602.62531	-52.00653	392.68619	-589.03223	104.21007	393.60037	-582.95398	-91.69837	384.39059	294.14713	49.79725	386.02737	301.31946	
6153	61.520	-190.28067	38.60021	-457.56638	211.23149	34.57661	-408.44147	-245.47342	21.25514	145.68134	201.80269	26.54847	81.96309	38.37529	651.21356	-601.34094	-51.95132	391.83148	-587.52264	104.35822	392.98346	-581.64050	-91.34701	384.55310	295.65866	49.82943	386.24915	302.83255	
6154	61.530	-190.20132	38.47954	-457.37415	210.91757	34.34015	-408.41589	-244.32848	21.10902	147.42815	202.00533	26.62824	83.43237	38.40713	650.71576	-600.16626	-51.64704	391.12885	-586.16913	104.23878	392.23703	-580.16077	-91.32772	384.83038	297.14810	50.15557	386.46454	304.24283	
6155	61.540	-190.01286	38.33530	-457.19772	210.53912	34.13903	-408.45667	-243.36281	21.03427	148.60468	200.94289	26.61113	84.47726	38.23085	649.95154	-598.84210	-51.65921	390.38889	-584.50488	104.16750	391.54340	-578.68719	-91.12675	385.14694	298.60016	50.28046	386.97299	305.87784	
6156	61.550	-189.91183	38.19271	-457.09387	210.32661	33.99072	-408.28580	-242.34500	20.82246	149.36014	199.81503	26.10445	85.46746	38.27880	649.63434	-597.18213	-51.87441	389.67377	-582.87091	104.35794	390.79425	-577.07574	-91.10923	385.58093	300.33902	50.56205	387.23041	307.35956	
